<?xml version="1.0" standalone="no"?>
<!DOCTYPE svg PUBLIC "-//W3C//DTD SVG 20010904//EN"
 "http://www.w3.org/TR/2001/REC-SVG-20010904/DTD/svg10.dtd">
<svg version="1.0" xmlns="http://www.w3.org/2000/svg"
 width="1101.000000pt" height="1101.000000pt" viewBox="0 0 1101.000000 1101.000000"
 preserveAspectRatio="xMidYMid meet">
<metadata>
Created by potrace 1.14, written by Peter Selinger 2001-2017
</metadata>
<g transform="translate(0.000000,1101.000000) scale(0.100000,-0.100000)"
fill="#000000" stroke="none">
<path d="M4247 6927 c-8 -7 -67 -88 -132 -182 -65 -93 -122 -173 -127 -176 -5
-3 -9 -9 -9 -13 2 -8 -51 -80 -61 -84 -5 -2 -8 -8 -8 -12 0 -8 -135 -207 -150
-220 -3 -3 -9 -12 -15 -21 -33 -54 -128 -189 -140 -199 -8 -7 -15 -16 -15 -21
0 -5 -15 -28 -32 -52 -18 -24 -39 -53 -46 -63 -7 -10 -48 -70 -92 -132 -44
-62 -80 -115 -80 -118 0 -3 -5 -10 -10 -17 -38 -45 -53 -65 -82 -111 -18 -28
-35 -53 -38 -56 -4 -3 -37 -50 -74 -105 -38 -55 -72 -101 -77 -103 -5 -2 -9
-9 -9 -15 0 -10 -60 -97 -98 -142 -4 -5 -17 -25 -27 -42 -11 -18 -23 -33 -27
-33 -4 0 -8 -4 -8 -10 0 -11 -63 -102 -92 -134 -10 -11 -18 -24 -18 -29 0 -4
-6 -15 -12 -22 -7 -8 -23 -29 -36 -47 -12 -18 -49 -71 -82 -118 -33 -47 -64
-92 -70 -100 -6 -8 -53 -76 -105 -150 -51 -74 -98 -140 -103 -146 -5 -5 -14
-19 -20 -31 -11 -20 -9 -20 227 -20 l237 0 25 36 c13 20 26 38 29 41 14 14 50
70 50 79 0 6 6 14 13 18 7 4 24 26 37 48 13 22 27 42 30 45 4 3 35 48 70 100
35 52 66 97 69 100 3 3 42 58 86 123 43 65 85 123 92 129 7 6 13 14 13 19 0 4
43 69 95 144 52 75 95 140 95 145 0 4 4 10 9 12 5 2 29 32 53 68 24 36 70 103
103 150 32 47 72 105 89 130 17 25 34 47 38 48 4 2 8 10 8 18 0 8 5 14 10 14
6 0 10 5 10 11 0 6 6 17 13 24 26 30 37 44 37 50 0 8 74 110 82 113 5 2 8 10
8 17 0 7 3 15 8 17 4 2 28 35 54 73 47 71 186 274 212 310 68 94 186 268 186
275 0 5 4 10 8 12 9 3 252 353 252 362 0 2 -99 5 -219 4 -153 0 -224 -3 -234
-11z"/>
<path d="M10030 6741 c-51 -17 -106 -50 -136 -83 -38 -42 -64 -83 -64 -103 0
-8 -4 -15 -8 -15 -10 0 -15 -42 -14 -122 1 -119 70 -226 180 -279 65 -31 178
-32 245 -2 60 28 132 101 159 161 25 55 31 202 11 245 -7 15 -18 38 -24 51
-19 41 -75 93 -137 128 -40 22 -168 34 -212 19z m176 -57 c13 -9 24 -13 24
-10 0 4 10 -2 22 -14 12 -11 24 -20 28 -20 13 0 73 -112 76 -142 1 -18 3 -33
4 -33 5 0 7 -62 2 -70 -3 -5 -7 -22 -9 -37 -6 -60 -63 -137 -123 -168 -21 -11
-40 -16 -44 -13 -3 4 -6 1 -6 -6 0 -10 -18 -12 -72 -8 -96 7 -114 15 -172 74
-51 53 -66 89 -73 173 -6 78 21 168 62 206 14 13 22 24 18 24 -12 1 66 42 105
55 43 15 126 9 158 -11z"/>
<path d="M9996 6612 c-2 -4 -4 -89 -4 -189 l1 -181 28 2 c15 0 27 3 27 6 0 3
0 39 1 81 1 74 2 77 26 77 29 0 35 -7 90 -95 32 -52 46 -66 68 -69 15 -1 27 0
27 3 0 3 -20 39 -45 80 -43 71 -53 95 -37 91 39 -10 84 55 77 111 -9 67 -52
91 -169 91 -47 0 -87 -4 -90 -8z m162 -47 c18 -3 32 -7 32 -8 13 -56 10 -76
-12 -88 -13 -7 -47 -14 -75 -15 -57 -2 -58 0 -54 61 4 54 10 62 44 60 18 -1
47 -6 65 -10z"/>
<path d="M425 6731 c-3 -2 -5 -537 -5 -1187 l0 -1183 223 1 224 1 0 379 c1
208 3 381 5 383 2 3 21 -17 41 -43 20 -26 49 -61 64 -78 16 -17 42 -48 58 -69
37 -45 60 -73 88 -105 12 -14 42 -50 67 -80 25 -30 47 -57 50 -60 3 -3 39 -45
80 -95 41 -49 80 -96 87 -103 7 -7 29 -34 50 -60 21 -26 43 -52 49 -58 7 -9
129 -12 435 -12 l425 -1 54 82 c30 45 57 84 60 87 9 8 29 44 40 68 5 12 14 22
20 22 5 0 10 6 10 13 0 7 9 23 20 35 11 12 20 24 20 27 0 8 44 69 53 73 4 2 7
10 7 18 0 13 -11 16 -72 16 -16 1 -29 3 -29 7 -6 28 -3 564 3 567 5 3 120 6
256 6 243 0 272 2 272 18 0 7 77 115 144 203 17 22 20 173 4 184 -6 3 -162 7
-347 7 l-336 1 0 253 c-1 278 -1 276 59 262 17 -4 40 -4 51 0 11 4 26 3 33 -2
6 -6 12 -7 12 -2 0 7 101 10 120 3 3 -1 9 -1 14 0 6 2 66 2 135 1 70 -1 137
-1 151 0 14 1 39 2 55 3 l30 2 0 210 0 210 -557 0 c-496 1 -558 -1 -559 -15 0
-8 -1 -529 -1 -1158 l-1 -1143 -33 37 c-19 20 -34 38 -34 40 0 4 -29 38 -65
78 -6 6 -42 49 -80 96 -39 47 -80 96 -92 110 -40 46 -58 68 -88 106 -16 20
-35 42 -40 48 -10 11 -94 111 -130 155 -11 13 -28 32 -37 42 -9 10 -21 27 -28
38 -9 17 -8 21 5 21 23 0 165 69 165 80 0 6 5 10 11 10 13 0 93 62 122 95 10
11 33 36 51 55 18 19 35 42 39 50 4 8 16 29 27 45 18 27 40 71 75 150 16 36
38 138 40 182 1 18 4 35 6 38 3 2 3 27 -1 55 -3 27 -3 55 1 62 4 7 4 17 0 23
-5 5 -8 17 -8 25 -1 15 -3 28 -23 109 -10 40 -77 189 -91 201 -3 3 -10 12 -15
22 -31 57 -212 228 -242 228 -5 0 -21 9 -35 21 -15 11 -35 22 -46 24 -10 2
-32 10 -49 19 -16 8 -43 18 -58 20 -16 3 -44 10 -61 15 -18 5 -33 7 -33 4 0
-3 -6 0 -14 6 -10 8 -16 9 -21 1 -3 -6 -12 -7 -18 -3 -13 8 -855 12 -862 4z
m845 -424 c14 -3 26 -6 28 -7 1 -1 5 -3 10 -4 30 -6 104 -53 138 -88 59 -63
91 -141 98 -241 2 -29 -17 -104 -39 -152 -23 -51 -98 -125 -150 -150 -70 -33
-92 -36 -302 -39 -180 -3 -183 -3 -184 18 -4 95 -1 655 4 662 5 9 343 9 397 1z"/>
<path d="M4854 6573 c-65 -93 -122 -169 -126 -171 -5 -2 -8 -8 -8 -12 0 -7
-55 -86 -108 -155 -4 -5 -23 -32 -42 -60 -19 -27 -37 -51 -42 -53 -4 -2 -8 -8
-8 -13 0 -6 -5 -15 -10 -22 -22 -26 -67 -88 -110 -153 -25 -36 -53 -75 -62
-85 -10 -11 -18 -21 -18 -24 0 -5 -54 -79 -86 -117 -7 -10 -12 -18 -9 -18 3 0
-3 -8 -12 -19 -10 -10 -40 -51 -68 -91 -27 -40 -71 -102 -98 -139 -55 -76 -49
-69 -161 -226 -47 -66 -91 -128 -98 -138 -7 -11 -29 -41 -48 -67 -19 -26 -42
-58 -50 -70 -8 -12 -26 -37 -40 -55 -24 -33 -116 -162 -194 -274 -22 -31 -58
-81 -80 -111 -39 -53 -75 -104 -88 -126 -5 -7 72 -11 252 -12 l260 -1 47 67
c27 36 55 76 63 88 57 85 155 220 162 222 4 2 8 8 8 14 0 5 6 16 13 23 6 7 28
37 47 65 19 28 45 63 57 78 13 15 23 31 23 36 0 5 10 17 22 27 11 11 18 19 14
19 -4 0 3 13 16 29 12 15 30 38 38 51 8 12 27 38 43 58 15 19 27 38 27 41 0 4
8 16 18 27 10 10 42 55 72 99 30 44 59 85 63 90 14 17 134 186 189 265 29 41
55 79 60 85 4 5 17 21 27 35 20 25 20 21 20 -660 0 -377 1 -701 1 -721 l0 -37
190 0 190 1 67 96 c37 53 71 101 75 106 31 38 218 308 218 315 0 5 3 10 8 12
4 2 23 26 42 53 19 28 86 122 148 210 62 88 140 201 174 250 34 50 65 92 70
93 4 2 8 10 8 18 0 8 5 14 10 14 6 0 10 7 10 15 0 8 4 15 8 15 4 0 16 14 26
32 11 17 25 39 32 47 8 9 38 52 69 96 30 44 55 73 56 65 0 -8 0 -335 0 -726
l0 -711 235 0 c230 0 234 1 235 21 0 27 0 2303 0 2334 -1 22 -2 22 -170 22
-163 0 -169 -1 -185 -22 -23 -33 -113 -160 -128 -182 -7 -10 -17 -24 -23 -30
-5 -6 -30 -40 -55 -76 -24 -36 -48 -69 -53 -75 -4 -5 -30 -41 -57 -80 -27 -38
-53 -74 -57 -80 -4 -5 -19 -27 -33 -47 -14 -21 -28 -38 -32 -38 -5 0 -8 -7 -8
-15 0 -8 -3 -15 -8 -15 -4 0 -12 -9 -17 -19 -6 -11 -74 -109 -152 -218 -79
-109 -148 -206 -155 -217 -7 -10 -40 -55 -74 -100 -33 -45 -63 -90 -67 -99 -3
-9 -11 -17 -17 -17 -5 0 -10 -5 -10 -10 0 -10 -69 -108 -95 -136 -7 -7 -10
224 -10 733 l0 743 -161 0 -161 0 -119 -167z"/>
<path d="M6857 6723 c-3 -10 -4 -544 -3 -1188 l1 -1170 225 0 225 0 0 317 c0
174 4 320 7 323 10 10 78 12 78 2 0 -4 5 -5 12 -1 17 11 121 11 136 1 6 -5 12
-6 12 -1 0 5 70 8 156 8 131 -1 158 -4 166 -17 4 -9 15 -23 23 -31 8 -8 15
-18 15 -21 0 -6 -75 -115 -135 -195 -15 -19 -54 -73 -86 -120 -78 -111 -81
-114 -134 -188 -25 -34 -45 -66 -45 -70 0 -5 117 -9 260 -10 l259 -1 43 59
c48 65 60 82 87 124 l19 28 54 -73 c30 -41 64 -89 77 -107 l23 -33 274 2 273
1 -16 31 c-9 18 -19 34 -24 37 -4 3 -27 35 -52 70 -24 36 -107 156 -184 267
l-141 201 72 99 71 100 55 -81 c30 -45 57 -83 60 -86 3 -3 34 -48 69 -100 36
-52 70 -98 75 -102 7 -5 7 -8 1 -8 -6 0 -6 -3 1 -8 10 -7 81 -107 155 -218 18
-27 36 -51 39 -54 3 -3 25 -35 50 -72 24 -37 51 -70 59 -72 28 -8 521 -4 521
5 0 4 -6 14 -13 21 -7 7 -49 65 -92 128 -44 63 -83 117 -87 118 -4 2 -8 9 -8
15 0 7 -14 28 -30 47 -16 19 -30 40 -30 47 0 6 -4 13 -8 15 -4 2 -50 65 -102
141 -52 77 -116 168 -142 203 -27 36 -48 69 -48 74 0 6 -3 10 -8 10 -4 0 -12
9 -17 20 -6 10 -47 71 -92 135 -46 65 -83 121 -83 126 0 5 -4 9 -10 9 -5 0
-10 5 -10 10 0 6 -9 20 -20 32 -19 21 -19 21 18 72 20 28 40 53 44 54 5 2 8 8
8 14 0 9 14 28 60 85 6 7 10 16 10 20 0 5 10 19 23 33 12 14 42 54 67 90 24
36 48 67 52 68 4 2 8 8 8 13 0 6 5 15 11 22 5 7 37 50 70 97 32 47 69 96 80
110 12 13 26 35 32 47 6 13 14 23 19 23 4 0 8 5 8 10 0 6 5 16 11 23 6 7 71
98 145 202 74 105 141 198 149 208 8 9 15 19 15 22 0 2 -119 4 -263 5 -263 0
-264 0 -280 -22 -10 -13 -46 -63 -82 -113 -35 -49 -68 -94 -72 -100 -4 -5 -21
-30 -38 -55 -16 -25 -32 -47 -35 -50 -3 -3 -55 -75 -115 -160 -60 -85 -111
-157 -114 -160 -3 -3 -10 -12 -16 -21 -36 -58 -82 -119 -91 -123 -7 -2 -26 17
-43 44 -18 27 -56 83 -86 125 -30 42 -55 80 -55 85 0 4 -4 10 -8 12 -4 2 -50
65 -102 141 -52 75 -130 188 -173 250 -43 61 -83 119 -87 127 -7 13 -49 15
-274 15 -146 1 -266 -2 -266 -6 0 -4 7 -15 16 -23 8 -9 13 -16 10 -16 -3 0 2
-8 12 -19 9 -10 46 -62 82 -115 36 -54 73 -107 83 -118 9 -12 17 -25 17 -29 0
-4 6 -14 13 -21 12 -12 127 -175 152 -216 6 -9 15 -22 20 -28 6 -7 30 -42 55
-78 25 -37 80 -116 123 -177 42 -60 77 -112 77 -115 0 -3 4 -10 10 -17 46 -57
60 -76 60 -85 0 -6 4 -12 8 -14 7 -3 55 -69 75 -105 4 -6 -8 -31 -25 -55 -18
-23 -49 -67 -68 -95 -19 -29 -37 -52 -40 -52 -4 0 -192 264 -230 324 -24 38
-249 358 -265 378 -8 9 -15 21 -15 26 0 4 -9 16 -20 26 -11 10 -20 24 -20 32
0 7 -4 13 -8 13 -4 0 -16 15 -27 33 -10 17 -21 34 -24 37 -4 3 -24 32 -46 65
-22 33 -44 64 -48 70 -7 9 -95 133 -117 165 -6 8 -42 61 -81 118 l-70 102
-184 0 c-166 0 -184 -2 -188 -17z m484 -900 c13 -21 29 -45 36 -53 31 -38 232
-326 233 -333 0 -5 -15 -7 -34 -4 -19 3 -39 0 -45 -6 -6 -6 -11 -7 -11 -1 0
11 -90 11 -108 0 -6 -4 -12 -4 -12 1 0 4 -20 7 -45 5 -38 -3 -45 -1 -46 14 -5
86 -3 414 3 414 3 0 17 -17 29 -37z"/>
<path d="M3205 4604 c-11 -15 -26 -33 -32 -40 -7 -7 -13 -15 -13 -18 0 -3 -9
-16 -19 -28 -61 -73 -111 -139 -111 -146 0 -14 190 -13 196 1 2 7 3 68 2 135
l-3 122 -20 -26z"/>
</g>
</svg>
